<svg xmlns="http://www.w3.org/2000/svg" width="121" height="31" viewBox="0 0 121 31"><g fill="none"><path d="M0.6 29.8L0.6 29C2.5 29 3.9 28.8 3.9 26L3.9 11.4C3.9 8.5 2.8 8.5 0.6 8.5L0.6 7.6 11.8 7.6 11.8 8.5C9.5 8.5 8.6 8.5 8.6 11.4L8.6 26C8.6 28.8 9.8 29 11.8 29L11.8 29.8 0.6 29.8ZM39.3 13L39.3 30 38 30 20.9 12.4C21 12.9 21 13.3 21 13.8L21 24.5C21 27.8 21 29 24 29L24 29.8 16 29.8 16 29C19 29 19 27.5 19 24.5L19 12.3C19 10.4 19 8.5 15.9 8.5L15.9 7.6 23.4 7.6 37.4 22C37.3 21.6 37.3 21.4 37.3 20.8L37.3 13C37.3 9.8 37.4 8.5 34.4 8.5L34.4 7.6 42.4 7.6 42.4 8.5C39.4 8.5 39.3 9.7 39.3 13L39.3 13ZM66.9 22.3L66.9 28C63.7 29.6 60.7 30.4 57.7 30.4 49.4 30.4 44.4 25.5 44.4 19.3 44.4 12.6 50.1 7.1 57.4 7.1 59.2 7.1 60.6 7.5 62 7.9 63 8.2 63.6 8.6 64.3 8.6 64.8 8.6 65 7.7 65.1 7.1L65.9 7.1 66.6 14.8 65.6 14.8C65.2 13.3 64.5 12 63.6 11.2 62.1 9.6 60 8.8 57.6 8.8 52.6 8.8 49.7 12.8 49.7 18.8 49.7 24.7 53.3 28.6 58 28.6 59.4 28.6 60.7 28.3 62.3 27.6L62.3 21.8C62.3 19.9 62 19.2 59.3 19.2L59.3 18.3 69.3 18.3 69.3 19.2C66.8 19.2 66.9 20 66.9 22.3L66.9 22.3Z" fill="#006"/><path d="M86.2 11.5C86.1 11.2 85.7 11.5 85.3 11.3 85.3 11.5 85.3 11.6 85.5 11.8 85.8 11.6 86.2 11.5 86.2 11.5L86.2 11.5ZM86.9 7.3C86.9 7.1 86.7 7 86.5 6.8L84.6 6.8C84.6 7.1 84.8 7.3 85 7.3 85 7.6 85.3 7.7 85.4 7.8 85.6 7.9 85.7 7.9 85.9 7.8 86.2 7.9 86.2 7.6 86.3 7.8 86.3 8.2 86.3 8.5 86.2 8.8 86.2 9.4 85.7 9.3 85.3 9.6 85.3 9.8 85 10.2 85.3 10.4 85.5 10.3 85.7 10.2 86.1 10 86.1 9.8 86.3 9.6 86.6 9.4 86.6 8.7 86.9 8 86.9 7.3L86.9 7.3ZM90.5 11.9L90.5 11.5 89.7 11.5 89.6 11.6 90.5 11.9ZM85.8 4.6C85.7 3.8 84.8 3.7 84.4 3.4L84.1 3.4C83.5 3.6 83.3 4.3 83.3 4.8 83.5 5.5 83.9 5.1 84.2 5.5 84.6 5.3 85.4 4.7 85.8 4.6L85.8 4.6ZM87.5 5.4C87.4 5.3 86.9 5.5 86.6 5.6 86.3 5.7 86.1 5.9 86.1 6.2L87 6.2C87 5.9 87.4 5.6 87.5 5.4L87.5 5.4ZM91.5 7.1C91.5 7.1 91.6 7.1 91.5 7L89.8 6.8C89.6 7 89.2 7 89.2 7.3L89 7.3C89.2 7.9 89.2 8.6 89.2 9.3 89.5 9.4 89.8 9.6 89.8 10 90.2 10.2 90.5 10.3 90.8 10.5 90.9 10.4 91 10.2 91.1 10 90.8 9.6 90.1 9.8 90.1 9.1L89.6 8.9C89.6 8.5 89.6 8 89.5 7.7L89.6 7.6C89.6 7.7 89.7 7.8 89.8 7.9 90.2 7.9 90.5 8 90.8 7.8 90.9 7.7 90.9 7.3 91.1 7.3 91.2 7.3 91.4 7.3 91.5 7.1L91.5 7.1ZM90.2 6.2C90.2 5.9 90.2 5.9 90.1 5.9 89.7 5.9 89.7 5.3 89.4 5.4 89.2 5.4 89 5.3 88.8 5.4 88.8 5.5 88.8 5.5 89 5.5 89.4 5.5 89.2 6.1 89.5 6.2L90.2 6.2ZM92.9 5.7C93 5.3 93 4.6 92.7 4.2 92.6 3.9 92.2 3.7 91.8 3.4L91.2 3.7C90.9 3.9 90.8 4.2 90.8 4.6 91.3 4.8 91.9 5.4 92.1 5.9L92.3 5.9C92.6 5.7 92.7 5.9 92.9 5.7L92.9 5.7ZM76.5 27.8C76.4 27.8 76.2 27.5 76 27.5 75.7 28 76 28.3 76 28.9 76 29.1 75.9 29.4 75.9 29.4 75.7 29.4 75.4 29 75.4 28.7L75.4 27.4 76 26.6C76.5 26.9 76.7 27.4 76.5 27.8L76.5 27.8ZM78.6 26.9C78.6 27.2 78.5 27.5 78.3 27.8 78.2 27.4 78 27 77.6 27 77.3 27.7 77.2 27.9 77.6 28.9 77.3 29.1 77.2 29.2 76.8 29.4 76.7 29 76.7 28.5 76.7 28.2 76.7 27.6 76.8 27 76.9 26.6 77.2 26.3 77.3 25.9 77.6 25.8L78.4 25.8C78 25.8 78 26.1 78 26.3 78.2 26.4 78.6 26.5 78.6 26.9L78.6 26.9ZM81.4 27.4C81.4 28 80.3 28.9 80.3 28.9 80.3 28.5 80.6 28 80.6 27.5 80.6 27.5 80.2 27.2 79.9 27.2 79.7 27.4 79.7 27.5 79.6 27.8 79.4 28.3 78.9 28.7 78.8 29.2 78.7 29.2 78.7 29.1 78.7 29.1 78.7 28.3 78.8 27 79.3 26.4 79.7 25.9 80 25.9 80.5 25.9L80.9 25.9 80.6 26.4C80.9 26.6 81.4 26.9 81.4 27.4L81.4 27.4ZM83.5 26.6L83.3 27.4 82.8 25.9C82.2 25.4 81.4 25.3 81 25 80.7 24.9 80.7 25.1 80.6 25 80.6 24.8 80.6 24.6 80.8 24.3L81.3 24.3 81.8 24.6C82 24.8 82.6 24.8 82.6 25.3 82.6 25.4 82.5 25.4 82.7 25.8L83.5 25.9 83.5 26.6ZM84.7 25.4L84.2 25.9C84 25.8 84.2 25.4 83.9 25.1 83.9 25 84.1 24.9 84 24.8 83.9 24.7 83 24.3 83 24.3 82.7 24.1 82.3 23.8 82 23.5 81.7 23.5 81.4 23.6 81 23.7L81 23.5C81.2 23.2 81.2 22.8 81.7 22.8 81.9 22.8 82.2 22.8 82.4 23 82.7 23 82.9 23.4 83.1 23.5 83.5 23.8 83.8 24 84 24.2 84 24.4 84.1 24.6 84.2 24.7 84.7 24.7 84.6 25.1 84.7 25.4L84.7 25.4ZM85.1 23C85.1 23.2 85 24.2 85 24.2 84.9 23.6 84.5 23 84 23 83.8 22.8 83.5 22.6 83.5 22.3 83.3 22.1 83 22.3 82.7 22.1 82.4 22.1 82 22.1 81.7 22.3L81.7 22.1 82.2 21.4C82.8 21.5 83.5 21.4 83.6 21.8 84 22.1 84.4 22.3 84.5 22.5L84.5 22.7C84.6 22.8 85 22.9 85.1 23L85.1 23ZM84.7 18.9L84.4 20.1C84 20.4 83.5 20.3 83 20.3 83.6 20.1 84.1 19.4 84.4 18.9 84.5 18.8 84.6 18.9 84.7 18.9L84.7 18.9ZM83.6 18C83.6 18.3 83.5 18.7 83.1 19.1 83 19.2 82.8 19.3 82.8 19.3 82.8 18.8 83 18.4 83 18.1 83.3 18 83.5 17.8 83.6 18L83.6 18ZM82.7 16.8C82.3 17.2 81.9 17.3 81.8 17.8 81.8 17.6 81.7 17.3 81.6 17.2 81.7 16.8 81.9 16.7 82 16.6 82.2 16.7 82.4 16.7 82.7 16.8L82.7 16.8ZM88.5 22.8C88.2 23 87.9 23 87.5 23L87 22.3 88.2 22.3 88.5 22.8ZM86.9 19.2C86.6 19.6 86.4 20.1 85.9 20.3 85.7 20.3 85.3 20.4 84.8 20.3 85 20.1 85.3 20 85.6 19.8L86.2 19.2 86.9 19.2ZM94.2 27.5L93.9 27.8C93.7 27.5 93.8 26.9 93.4 26.8 93 26.8 92.7 26.4 92.6 26.3L92.9 26.2C92.9 26.2 93 26.1 93.2 26.2 93.4 26.3 93.5 26.4 93.5 26.6 93.7 26.8 93.9 26.6 94.1 26.8 94.2 27 94.3 27.4 94.2 27.5L94.2 27.5ZM88.3 19.8C88.2 20.3 88 20.4 87.6 21 87.4 21.1 86.9 21.2 86.4 21.4 86.5 21.2 86.7 21.1 86.9 20.9 87 20.6 87.4 20.3 87.4 20 87.8 19.8 88 19.8 88.3 19.8L88.3 19.8ZM84.5 17C84 16.8 83.5 16.4 83.3 16 83.1 15.7 83 15.3 83 15 83.3 15 83.5 15.3 83.6 15.4L83.6 15.5C84 16 84.4 16.4 84.5 17L84.5 17ZM90.6 22.7L90.5 22.7C90.4 22.7 89.8 22.5 89.7 22.3 89.6 22.1 89.6 21.8 89.6 21.8L90.2 21.8 90.6 22.7ZM96.9 26.4C96.9 26.6 96.7 27 96.6 27.4 96.5 26.9 96.3 26.2 95.7 26.2 95.7 25.9 95.6 25.8 95.3 25.5L94.6 25.4C94.7 25.8 95.2 25.8 94.9 26.2 95.2 26.4 95.4 26.4 95.6 26.8 95.7 27 95.6 27.4 95.7 27.5L95.2 27.8C95.2 27.4 95.3 26.6 94.7 26.4 94.3 26.6 94.2 25.9 93.8 25.8 93.7 25.8 93.7 25.4 93.4 25.5 93 25.8 92.6 25.5 92.2 25.8L92.6 25.1C92.9 24.9 93.2 25 93.5 24.9L94.2 24.8C94.8 24.8 95.3 25.1 96 25.4 96.3 25.5 96.5 25.8 96.5 26.1 96.6 26.2 96.9 26.2 96.9 26.4L96.9 26.4ZM85.5 15.8L85.3 16.8C85 16.3 84.8 15.9 84.7 15.3L85.5 15.8ZM87 18.1C86.6 17.6 86.2 17.2 86.2 16.7 86.4 16.7 86.6 16.7 86.9 16.8 86.9 17.2 87 17.6 87 18.1L87 18.1ZM96.1 24.8C95.8 24.6 95.3 24.6 95.2 24.2 94.9 24.1 94.6 24.1 94.3 24.1 93.9 24.2 93.5 24.2 93.2 24.2 93.1 24.2 93.2 24.1 93 24 92.6 24.2 92.1 24.2 91.6 24.7L92 23.7C92.3 23.7 92.6 23.5 92.7 23.5 93 23.5 93.3 23.5 93.5 23.5L93.5 23.5C94.4 23.5 95.4 23.5 96.1 24.2L96.1 24.8ZM91.4 20.3C91.2 20.4 90.8 20.6 90.5 20.6 90 20.2 89.7 19.7 89.2 19.1L90.5 19.3C90.7 19.5 91.2 20 91.4 20.3L91.4 20.3ZM88.7 16.8C88.7 17.3 88.6 18.1 88.1 18.3L87.9 17.5C88.2 17.3 88.4 17.2 88.7 16.8L88.7 16.8ZM96 23.2C95.6 23.2 95.3 23.2 95 22.8 94.9 22.8 94.8 22.6 94.7 22.7 94.3 23 93.9 22.5 93.4 22.6 93.2 22.8 93 23 92.6 23L92.6 23C92.6 22.7 92.7 22.5 93 22.3 93.5 22.5 93.9 21.4 94.4 22 94.6 22.1 94.9 22.1 95 22.1 95.6 22.3 95.7 22.8 96 23.2L96 23.2ZM97.8 26.2L97.7 26.2C97.6 25.9 97.5 25.8 97.3 25.8 97.6 24.9 97.1 24.2 96.9 23.5L96.9 23.2C97.2 23.6 97.8 24 97.7 24.4 97.8 25.1 97.8 25.8 97.8 26.2L97.8 26.2ZM90.5 18.1C90.1 17.8 89.4 17.7 89.5 17.2 89.7 16.8 89.9 16.8 90.1 16.6 90.2 17.2 90.2 17.6 90.5 18.1L90.5 18.1ZM82.3 7.8L81.9 8.2C82 9 81.7 9.6 81.7 10.3L81.3 9C81.4 8.7 81.4 8.4 81.7 8L82.3 7.8ZM94.2 19.8L93.9 19.8C93 20.1 92.3 19.6 91.6 19.1 92 18.9 92.6 18.8 93 18.8L93.3 19.3C93.5 19.4 93.9 19.6 94.2 19.8L94.2 19.8ZM90.1 13.4C90 13.8 89.8 14.6 89.4 14.9 89.4 14.6 89.2 14.4 89 14.2 89 14.2 89 14.4 89 14.4 89 14.6 88.8 14.9 88.8 15.2 88.6 15.3 88.3 15.4 88 15.3L88 15C87.9 14.9 87.9 14.6 87.9 14.4L87.8 14.3C87.6 14.4 87.6 14.6 87.6 14.7 87.5 14.9 87.4 15 87.4 15.3 87 15.3 86.9 15.2 86.6 15L86.6 14.3C86.6 14.2 86.6 14.2 86.6 14.2L86.2 14.6C85.8 14.3 85.8 13.7 85.8 13.3 87 12.6 88.6 12.8 89.6 13.2 89.8 13.3 89.9 13.3 90.1 13.4L90.1 13.4ZM92.3 17.7C92 17.8 91.5 18 91.3 17.6 90.9 16.8 91.1 16.2 91.3 15.7 91.5 16.1 91.5 16.6 91.6 17 91.7 17.3 92.2 17.5 92.3 17.7L92.3 17.7ZM82.2 6.6L81.6 6.8 81.7 6.4C81.8 6.2 81.9 5.9 82.2 5.7L82.2 6.6ZM95.5 18.9C95.2 18.9 94.6 18.9 94.3 18.7 93.8 18.4 93.7 18.3 93.4 18.1 93.8 17.8 94.2 17.8 94.3 17.7 94.6 18.1 94.9 18.6 95.5 18.9L95.5 18.9ZM93.3 16.7C92.9 16.8 92.6 16.4 92.2 16.2 92 15.8 92 15.3 91.9 15 92.2 15.3 92.9 15.3 92.7 16 92.7 16.2 93 16.4 93.3 16.7L93.3 16.7ZM99.8 22.3C99.8 22.8 99.5 23.2 99.4 23.7 99.4 23.2 99.3 22.8 99 22.5 99 22.3 99.3 22.3 99.1 22.1 99.1 22.1 98.7 21.8 98.7 21.5 98.7 21.2 99 21 99.1 20.7 99.1 20.6 99.4 20.9 99.4 21.4 99.4 21.4 99.4 21.7 99.3 21.8 99.3 22.1 99.8 22.1 99.8 22.3L99.8 22.3ZM101.7 23.2C101.7 23.6 101.2 24.1 101 24.4 101.2 24 101.2 23.2 101 23.2 100.9 23.1 100.5 23.2 100.5 23 100.5 22.8 100.6 22.5 100.6 22.3 100.6 22 100.4 21.8 100.4 21.7 100.4 21.2 100.9 21.1 101.1 20.8 101.2 21.1 101.2 21.4 101.2 21.8 101.2 22 101.4 22.5 101.2 22.9 101.2 23.1 101.7 23 101.7 23.2L101.7 23.2ZM95.2 15.8C94.7 15.8 94.2 16 93.9 15.5 94.1 15.4 94.3 15.2 94.4 15L95.2 15.8ZM97.4 17.6L97 17.7C96.1 17.7 95.7 17.5 95.3 17.2 95.7 17.2 96.1 16.8 96.1 16.8 96.5 17.2 97 17.5 97.4 17.6L97.4 17.6ZM94.2 12.6C93.2 12 92.2 11.6 91 11.6 91 11.8 91 12 90.9 12.1 91.9 12.6 92.7 13 93.5 13.7L93.5 14.4C92.7 13.6 91.9 12.8 90.9 12.6 90.8 12.7 90.5 12.9 90.4 13.2 89.8 12.8 89.2 12.4 88.6 12.3 88.3 12.3 88.2 11.5 88.2 11.5 88.6 11.3 88.8 11.1 89 10.7L89.3 10.7C89.5 10.7 89.5 10.5 89.5 10.3 89.5 9.8 88.5 9.8 88 9.8 87.4 9.8 87 9.8 86.7 10 86.6 10 86.6 10.3 86.6 10.4 86.6 10.5 86.9 10.7 86.9 10.7 87 10.7 87.2 10.5 87.4 10.5 87.3 11 87.4 11.2 87.9 11.5L87.8 12.3C86.9 12.3 86.2 12.6 85.5 13 85.3 12.8 85.1 12.6 85 12.3 84 12.6 82.4 13.9 82.4 13.9L82.4 13.4C83.1 12.7 84 12.4 84.7 12L84.7 11.5C84.4 11.3 84.1 11.5 83.8 11.5 83.1 11.6 82.4 11.9 81.9 12.3 81.9 12 81.8 11.7 81.8 11.7 82.7 11.2 83.8 10.8 84.8 11L84.8 10.7C84.7 10.5 84.7 10.3 84.6 10.3 84.1 9.8 83.6 9.1 83.6 8.6L83.9 8.5C83.8 8 83.6 6.8 83.9 6.4 83.5 6.2 83 5.8 82.9 5.4 82.7 5.1 82.6 4.8 82.5 4.4 82.7 3.9 82.9 3.7 83.1 3.3 83.3 3.3 83.5 3.2 83.5 3 83.9 2.9 84.2 2.5 84.6 2.8 85 2.8 85.3 2.9 85.5 3 85.5 3.2 85.5 3.3 85.7 3.4 86.2 3.4 86.2 3.9 86.4 4.3 86.6 4.4 86.9 4.4 87 4.4 87.5 4.5 87.9 4.5 88.1 4.7 88.7 4.4 89.4 4.3 90.1 4.4 90.2 4.1 90.3 3.8 90.4 3.4 90.5 3.6 90.5 3.4 90.6 3.4 90.9 3.2 91.3 2.8 91.9 2.9 92.2 3.2 92.7 3 93 3.4 93.3 3.7 93.4 4.2 93.7 4.6 93.4 5.1 93.7 5.7 93.2 5.9L92.7 6.4C92.6 6.4 92.6 6.6 92.3 6.6 92.6 7.1 92.4 7.9 92.2 8.5 92.3 8.4 92.6 8.4 92.6 8.2 92.7 8.2 92.6 8.4 92.6 8.5L92.6 8.7C92.6 9.1 92.3 9.5 92 9.8 91.9 10.3 91.5 10.9 90.9 11L90.9 11.2C92.1 11.2 93 11.5 94.2 12L94.2 12.6ZM100.3 20.3C100.3 20.4 100.1 20.6 100 20.6 100 20.6 99.6 20.2 99.5 19.8 99.4 19.5 99.7 18.9 99.7 18.9 99.8 18.9 99.9 19.1 100 19.1 100.1 19.2 100 19.4 100.1 19.6 100.3 19.8 100.5 20.1 100.3 20.3L100.3 20.3ZM106.7 25.8C106.7 25.8 106.6 25.9 106.6 25.9 106.2 25.8 106 25.7 105.5 25.7 105.5 25.4 105.3 25 105.1 25 104.6 25 104.7 25.3 104.3 25.3L105 24.6C105.1 24.4 105.1 24.4 105.3 24.4 105.5 24.6 105.6 24.7 105.8 24.7 105.8 24.8 105.8 24.9 105.7 25.1 106 25.3 106.1 25.1 106.3 25.3 106.5 25.4 106.7 25.4 106.7 25.8L106.7 25.8ZM99.3 18.5C99.3 18.8 99.1 18.8 99 19 99 19 98.7 18.6 98.7 18.4 98.7 18.1 98.7 18 98.7 17.7 99 18 99.3 18.3 99.3 18.5L99.3 18.5ZM102.4 20.9C102.4 21.4 102.3 21.9 102.3 22.5 102.1 22.5 102.1 22.3 102.1 22 102 21.5 101.8 21.1 101.7 20.6 101.5 20 101.1 19.5 100.8 18.8 100.7 18.4 100.3 18.3 100 18.1 100.4 18.1 100.8 18.1 101.1 18.4 101.1 18.5 101.2 18.6 101.4 18.8 102 18.8 101.8 19.6 102.3 19.9 102.1 20.1 102 20.3 101.8 20.4 102.1 20.6 102.3 20.6 102.4 20.9L102.4 20.9ZM98.3 16.4C98.1 16.6 97.4 16.7 96.9 16.3L97.6 16C97.8 16.2 98.1 16.3 98.3 16.4L98.3 16.4ZM96.5 14.6C96.5 14.9 96.1 14.6 96.1 14.6L95.3 14.6C95.3 14.4 95.2 14.3 95.2 14.2 95.5 14.1 95.7 13.9 96 14.1 96.1 14.3 96.3 14.6 96.5 14.6L96.5 14.6ZM103.5 20.8C103.5 21.1 103.3 21.4 103.4 21.7 103.3 21.2 102.9 20.7 102.8 20.3 102.8 20.2 102.7 20.2 102.9 20.1 102.9 20.1 103.3 20.1 103.3 20.2 103.3 20.3 103.5 20.6 103.5 20.8L103.5 20.8ZM107.5 24.1C107.5 24.4 107.4 24.5 107.3 24.9 106.8 24.8 106.8 24.2 106.7 24.1 106.3 23.6 105.8 24 105.4 24 105.3 23.5 105.5 23.5 105.5 23.2 105.7 23.2 106 23 106.2 23.2 106.6 23 106.8 23.5 107.2 23.5 107.3 23.6 107.4 24 107.5 24.1L107.5 24.1ZM109.1 26.3C108.9 26.6 108.9 26.6 108.9 26.8 108.9 26.4 108.4 26.2 108.1 25.5L108.4 25C108.6 25.1 108.9 25.4 108.9 25.8 108.9 25.8 108.9 25.9 108.9 26.1 108.9 26.2 109.1 26.2 109.1 26.3L109.1 26.3ZM96 12.8C95.5 12.8 95.3 12.6 95 12.1 95 11.9 94.9 11.6 95 11.2 95.2 11.5 95.2 11.6 95.3 11.8 95.7 11.6 95.7 12 95.7 12.1 95.8 12.3 96 12.6 96 12.8L96 12.8ZM102.8 18.7C102.1 18.3 101.7 17.6 101 16.8 101.7 16.8 101.8 17.5 102.3 17.6 102.5 17.7 102.6 17.8 102.8 18.1L102.8 18.7ZM107.8 23.2C107.2 23.2 107.5 22.1 106.3 22.1 106.1 22.1 106 22.5 105.7 22.6 105.7 22.5 105.7 22 105.7 22 105.7 21.8 105.8 21.5 106.1 21.4 106.7 21.4 106.6 21.6 107 21.8 107.3 21.8 107.4 22 107.8 22L107.8 23.2ZM109.7 24.2C109.7 24.7 109.7 24.9 109.4 25.3L108.9 24.6C109.1 24.3 109.1 24 109.4 23.6 109.4 23.6 109.7 24.2 109.7 24.2L109.7 24.2ZM94.3 9C94.3 9.1 94.2 9.8 94.2 9.8L93.5 10 93.9 8.2C94.1 8.5 94.3 8.8 94.3 9L94.3 9ZM108.2 21.4C107.9 21.4 107.3 21.3 107.3 21.1 107.3 20.7 107.2 20.6 106.8 20.6 106.5 20.6 106.3 20.7 105.8 20.9 105.8 20.9 105.6 20.6 105.5 20.3 105.7 20.2 106.3 20 106.6 20 107.1 20 107.7 20 107.7 20.3 107.7 20.6 108.2 20.6 108.2 21.4L108.2 21.4ZM108.9 19.7C108.3 19.7 107.8 19.6 107.7 19.3 107.5 19.2 107.7 18.8 107.3 18.8 107.1 18.8 106.9 19.1 106.9 19.1 106.7 19.2 106.3 18.8 106.3 19.1 106.3 19.5 106 19.6 105.6 19.6 105.4 19.6 105.3 19.6 105.1 19.6L105.1 18.8C106.1 18.8 106.1 18.4 106.5 18.4 106.8 18.4 107 18.6 107.3 18.6 107.7 18.6 107.4 18.4 107.8 18.4 108.2 18.4 108.4 18.8 108.6 18.8 108.6 19.1 108.9 19.4 108.9 19.7L108.9 19.7ZM108.6 18C108 17.6 107 17.3 106.5 17.3 106.2 17.3 105.3 17.7 104.9 18.1L104.8 17.3C105.3 17.2 105.3 16.8 105.6 16.8 105.8 16.8 106.1 16.8 106.3 16.8 106.6 16.8 106.7 16.6 106.8 16.6 107.2 16.6 107 17 107.3 17 107.5 17 107.7 16.8 107.8 16.8 108.2 16.8 108.6 17.5 108.6 18L108.6 18ZM106.8 16.2C106.3 16.2 106.3 16.1 106 16.1 105.6 16.1 105.1 16.3 104.9 16.7 104.7 16.4 104.8 16.2 104.9 16 105.1 15.8 105.5 15.4 105.8 15.4 106.3 15.4 106.8 15.9 106.8 16.2L106.8 16.2ZM106.9 15C106.3 14.9 106.1 14.6 105.6 14.6 105.4 14.6 104.7 14.9 104.6 15 104.4 14.7 104.8 14.1 105.1 13.9 105.4 13.8 105.6 13.8 105.7 13.9 105.7 14.4 106.3 14.2 106.6 14.3 106.7 14.6 106.8 14.7 106.9 15L106.9 15ZM108.8 5.9L107.9 5.9C107.8 5.7 107.5 5.9 107.3 5.9 107.2 5.9 107.1 5.9 106.8 5.7 107.3 5.7 107.5 5.4 107.9 5.3 108.2 5.5 108.6 5.6 108.8 5.9L108.8 5.9ZM111.2 7.6C111 7.3 110.7 7.1 110.5 7.1 110.2 6.8 109.9 6.4 109.6 6.4 109.8 6.4 110.2 6.2 110.5 6.2 110.7 6.6 111 6.8 111.1 7.1L111.2 7.6ZM90.3 27.7C90.2 27.7 90.4 27.9 89.6 27 89.4 27 89.2 27.5 89.2 27.7 89.2 28.3 89.4 29.2 89.6 29.8L90.2 29.8C90.2 29.1 90.3 28.3 90.3 27.7L90.3 27.7ZM92 27.8C92 27.4 91.8 27.4 91.5 27.4 91.3 27.4 90.9 27.6 90.9 27.8 90.9 28.1 90.8 29.8 90.8 29.8L91.3 29.8C91.5 29.1 92 28.2 92 27.8L92 27.8ZM102.5 26.8L101.7 26.9C102 27 102 27.4 102 27.5 102 27.8 101.8 28 101.7 28.2 101.5 28 101.5 27.8 101.3 27.5 101.2 27.5 101.1 27.9 101.1 28.1 101.1 28.8 101.4 29.4 101.7 29.8L102.4 29.8C102.3 29.2 102.1 28.6 102.1 27.9 102.1 27.5 102.4 27 102.5 26.8L102.5 26.8ZM119.6 19.6C119.6 16.1 118.2 12.6 115.6 10 114.5 8.9 113.3 8.4 112.4 7.3 111.9 6.8 111.5 6.3 111.2 5.7 110.8 5.3 110.5 5.1 110.1 4.8 110.2 5.1 110.2 5.3 110.3 5.5L110.2 5.5C109.8 5.5 109.4 5.3 109.1 5.1L109.4 4.7C109.4 4.6 109.1 4.6 108.9 4.6 107.7 4.4 106.5 5.1 105.3 5.3L105.3 5.4C106.1 5.7 106.2 6.6 106.6 7.1L107.1 7.1C107.3 7.1 107.5 7.3 107.7 7.3 107.7 7.1 107.5 6.8 107.5 6.8 107.7 6.6 107.8 6.6 108 6.8 108.4 7 108.9 6.6 109.4 7.3 108.9 7.3 108.4 7.3 108 7.5 108 7.6 108.2 7.8 108.2 7.9 107.8 7.8 107.3 7.9 107.1 7.6L107 7.7C107.5 8.2 108.2 8.7 108.9 8.9 110 9.1 110.9 8.6 111.9 8.8 115.5 10.6 118 14.7 118 18.8 118 24.7 114.7 27 112.6 27 112.2 27 111.6 26.8 111.4 26.6 111.6 25.8 111.7 24.8 111.7 23.4 111.7 20 110.4 16.3 108.6 14.4 107.7 13.5 106.7 12.8 105.7 12.8 105.3 12.8 104.8 12.8 104.5 13.2 104.1 13.5 103.8 14.2 103.9 14.6 103.3 15 102.2 15.3 101.4 15.3 100.5 15.3 99.4 15 98.4 14.2L98.4 13C98.2 12.9 97.4 12.4 97.8 12 98.1 12.1 98.2 12.3 98.3 12.3 98.2 11.8 98.2 11.2 97.8 10.7 97.7 10.7 97.4 10.7 97.2 10.5 96.9 10.3 96.7 10 96.7 9.6 96.9 10 97.3 9.8 97.6 10 97.2 9.1 97.3 8.7 96.6 7.3 96.5 6.6 95.7 6.2 95.3 5.7 95 5.5 94.9 5.3 94.6 5.3 94.3 5.2 94.3 4.8 94.3 4.6 94.4 4.6 94.6 4.7 94.8 4.8 94.3 3.7 94 2.5 93 1.9L92.7 2 91.5 2C91.6 1.9 91.9 1.8 92.2 1.6 91.9 1.4 91.8 1.3 91.3 1.3 91.1 1.4 90.8 1.6 90.5 1.6L90.4 1.6C90.4 1.4 90.3 1.1 90.8 0.9 90.3 0.8 89.9 0.8 89.4 0.9 89.3 1.3 89 1.6 89 1.9 88.8 2 88.7 2.3 88.5 2.5 88.5 2 88.7 1.6 88.8 1.1 88.5 1.2 88.1 1.4 87.9 1.4 87.3 1.1 86.5 0.8 86.2 0.8 86.6 1.1 86.4 1.6 86.5 2L86.2 1.9C86.1 1.6 85.7 1.3 85.6 0.9 85.1 0.9 84.8 1.1 84.4 1.3L84.4 1.4C84.6 1.4 85 1.6 85.1 1.9 84.6 1.9 84.2 1.6 83.6 1.6 83.6 1.6 83.6 1.6 83.5 1.6 83.3 1.6 83.1 1.9 83 2 82.4 2.5 82 2.9 81.8 3.6 81.9 3.6 82.2 3.6 82.2 3.7 81.9 3.8 81.8 4.2 81.4 4.3L81.4 5.4C81.2 5.7 80.9 5.9 80.7 6.4 80.3 7.7 80.2 9.1 80.2 10.7 80.2 11 80 11.1 79.8 11.2L79.8 12.4C79.8 12.4 80.3 12 80.6 11.8L80.6 12.8C80.2 12.8 80 13.2 80 13.5 80 13.8 80.1 14.1 80.1 14.4 80.1 14.6 80.1 14.6 80.2 14.7 80.2 14.6 80.3 14.4 80.6 14.3 80.6 14.3 80.7 14.2 81 14.2 80.8 14.4 80.7 14.7 80.6 15L80.3 15.3C80.3 15.3 80.2 15.4 80.2 15.5 80.6 17.2 81 18.6 81.7 20.2 81 21.2 80.3 23.2 79.8 25.1 79.4 24.7 78.9 24.7 78.4 24.7 77.9 24.7 77.5 24.9 77.2 25.4 76.7 25.1 76 25.2 75.7 25.5 75.1 26.1 75.1 26.4 75.1 26.9 74.9 27 74.6 27.4 74.6 28 74.6 28.7 74.7 29.2 75.1 29.8L87 29.8C87 29.6 86.8 29.3 86.6 29.1 86.4 28.6 86.6 28 86.6 27.5 86.8 27 87 26.6 87.4 26.2 87.4 25.9 87.4 25.9 87.4 25.9L88 25.8C88.3 25.8 88.6 25.5 89 25.5 89.2 25.9 89.2 25.3 89.6 25.1 90.5 25 91.3 25.1 91.8 25.8 91.8 25.9 91.9 25.9 91.9 25.9L91.5 25.9C91 25.8 90.5 25.5 89.9 25.8 89.9 25.9 89.8 25.9 89.8 26.2L89.8 26.6C90.2 26.6 90.4 26.9 90.7 27 90.9 26.8 91.3 26.6 91.6 26.6 92 26.6 92.6 26.8 92.6 27.4L92.6 28.3C92.9 28.6 93.3 28.7 93.7 28.9 93.5 29.2 93.3 29.2 93 29.2L92.4 29.2C92.3 29.1 92.2 29.1 92.2 28.9 91.9 29.2 91.8 29.5 91.6 29.8L100.9 29.8C100.7 29.5 100.5 29.3 100.5 29.1 100.3 28.6 100.3 28 100.3 27.5L101.2 26.3C101.7 26.3 102.1 26.2 102.9 26.1 103.1 25.9 102.9 25.8 103.7 25.8 104.2 25.8 104.6 25.9 104.8 25.9 104.9 26.1 104.9 26.1 104.8 26.3 104.6 26.4 104.3 26.1 104.1 26.2 103.9 26.3 104.1 26.4 104.1 26.6 104.3 26.7 103.4 26.4 103.4 26.4 103.4 26.4 103.3 26.9 103.2 27 103.2 27 103.5 27.4 103.7 27.5 103.8 27.8 103.4 28 103.4 28.3 103.3 28.2 102.9 27.9 102.9 28 102.8 28.6 102.9 29.2 102.9 29.8L103.7 29.8 103.8 28.5C103.9 27.7 104.9 26.3 105.4 26.3 105.7 26.3 106 26.4 106.2 26.6 106.3 26.9 106.7 27 106.7 27.2 106.7 27.4 106.5 27.4 106.1 27.4 106 27.4 106 27.2 105.7 27L105.3 27.5C105.3 27.5 105.8 28 105.8 28.3 105.8 28.7 105.7 28.9 105.5 29.1L105 28.2C104.8 28.2 104.4 28.6 104.4 28.9 104.4 29.2 104.2 29.4 104.2 29.8L109.1 29.8C109.7 29.8 110.2 29.7 110.7 29.4L111.7 29.4C113.6 29.4 115.2 28.8 116.6 27.4 118.5 25.5 119.6 22.5 119.6 19.6L119.6 19.6ZM89 29.8C88.6 29.1 88.5 28 88.5 27.8 88.5 27.4 88.5 26.8 88.7 26.4L87.8 26.6C87.6 26.9 87.5 27 87.5 27.2L87.9 27C88 27 88.1 27.2 88.2 27.4 88.1 27.8 87.6 27.8 87.4 27.9 87.2 28.7 87.9 29.2 88 29.8L89 29.8Z" fill="#FF6200"/></g></svg>